<?xml version="1.0" standalone="no"?>
<!DOCTYPE svg PUBLIC "-//W3C//DTD SVG 20010904//EN"
 "http://www.w3.org/TR/2001/REC-SVG-20010904/DTD/svg10.dtd">
<svg version="1.0" xmlns="http://www.w3.org/2000/svg"
 width="267.000000pt" height="41.000000pt" viewBox="0 0 267.000000 41.000000"
 preserveAspectRatio="xMidYMid meet">
<metadata>
Created by potrace 1.10, written by Peter Selinger 2001-2011
</metadata>
<g transform="translate(0.000000,41.000000) scale(0.100000,-0.100000)"
fill="#000000" stroke="none">
<path d="M52 375 c-13 -17 -22 -49 -27 -98 -4 -39 -12 -78 -19 -86 -8 -11 -8
-15 2 -18 8 -3 12 -26 12 -67 0 -80 13 -99 70 -99 35 0 48 6 64 26 l21 25 17
-22 c32 -44 139 -39 154 6 l6 21 17 -21 c38 -51 130 -49 163 2 l19 31 -7 -37
-6 -38 41 0 41 0 0 43 c0 50 19 90 43 95 14 3 17 -4 17 -41 0 -61 25 -91 75
-91 29 0 43 7 61 28 l24 27 0 -30 c0 -29 3 -31 35 -31 l35 0 0 64 c0 49 4 65
16 70 29 11 34 6 34 -38 0 -59 25 -90 74 -90 24 0 44 7 58 21 l21 22 18 -22
c25 -32 98 -31 133 2 44 41 47 120 6 161 -44 44 -123 12 -158 -64 -35 -73 -78
-60 -84 24 l-3 45 -52 0 c-29 -1 -53 3 -53 7 0 4 -18 8 -40 8 -40 0 -40 0 -40
-37 0 -47 -19 -87 -44 -91 -27 -6 -39 12 -46 66 -5 46 -6 47 -42 50 -20 2 -47
-2 -58 -8 -36 -19 -35 -3 2 42 45 55 58 81 58 112 0 58 -85 78 -130 31 -21
-23 -24 -37 -29 -139 -6 -119 -14 -140 -59 -157 -51 -20 -85 37 -44 74 23 21
38 21 49 2 5 -9 13 -11 22 -6 19 12 -3 49 -35 57 -47 12 -96 -16 -124 -71 -28
-54 -66 -73 -104 -53 -20 11 -19 12 12 19 66 14 88 62 44 97 -42 33 -103 5
-141 -64 -35 -65 -65 -68 -69 -6 -3 36 0 42 16 42 11 0 22 7 26 15 4 11 -2 15
-21 15 l-26 0 20 23 c56 60 79 137 51 165 -7 7 -31 12 -54 12 -33 0 -47 -5
-62 -25z m84 -30 c3 -8 -3 -29 -15 -47 l-21 -33 0 41 c0 22 3 44 7 47 11 11
23 8 29 -8z m515 -44 c-29 -40 -33 -39 -25 7 9 50 14 56 31 39 14 -14 13 -19
-6 -46z m-575 -78 c-1 -26 -8 -49 -15 -51 -9 -3 -11 6 -6 34 13 79 25 88 21
17z m217 -60 c11 -10 -14 -33 -36 -33 -19 0 -20 1 -2 20 19 21 28 24 38 13z
m967 -29 c0 -26 -20 -54 -38 -54 -43 0 -56 49 -20 74 24 17 58 6 58 -20z
m-1021 -78 c16 -19 15 -19 -11 -1 -28 17 -35 35 -20 49 4 4 9 0 11 -11 1 -10
10 -27 20 -37z m-142 -22 c-10 -10 -37 16 -37 34 0 13 4 12 22 -5 12 -13 19
-25 15 -29z m1088 21 c16 -13 26 -27 22 -32 -4 -4 -22 7 -40 25 -37 37 -25 42
18 7z"/>
<path d="M1601 376 c-18 -19 -24 -40 -28 -100 -3 -42 -10 -76 -14 -76 -5 0 -9
-7 -9 -15 0 -8 5 -15 10 -15 6 0 8 -15 4 -39 -8 -52 11 -110 42 -121 35 -14
83 -1 102 27 16 25 16 25 24 4 15 -41 81 -48 121 -13 16 14 19 14 31 -3 22
-30 83 -25 112 9 l24 27 0 -30 c0 -29 3 -31 35 -31 l35 0 0 64 c0 49 4 65 16
70 29 11 34 6 34 -38 0 -61 25 -90 76 -89 28 1 44 8 60 26 20 23 21 23 32 6 6
-10 30 -23 51 -29 49 -13 105 6 116 40 7 21 8 21 25 -8 29 -48 126 -52 156 -6
27 40 14 85 -31 115 -53 36 -52 55 3 52 40 -2 42 -1 42 28 l0 29 -65 0 c-52 0
-69 -4 -85 -20 -11 -11 -20 -26 -20 -33 0 -21 28 -54 65 -77 38 -23 45 -44 19
-54 -19 -7 -44 10 -44 30 0 12 -48 40 -55 32 -1 -2 -8 -13 -14 -26 -14 -27
-50 -43 -80 -35 -24 6 -28 23 -6 23 9 0 29 7 45 15 62 32 19 105 -53 91 -40
-7 -69 -36 -91 -88 -26 -65 -76 -46 -76 29 0 37 -3 43 -25 49 -14 3 -41 3 -61
-1 -24 -4 -34 -3 -29 4 4 7 -9 11 -37 11 l-44 0 4 -37 c3 -44 -16 -86 -41 -91
-31 -6 -47 17 -47 69 l0 49 -38 0 -38 0 1 -58 c0 -54 -1 -57 -25 -57 -23 0
-25 4 -28 58 l-3 57 -39 0 c-40 0 -40 0 -40 -39 0 -46 -29 -88 -53 -78 -12 4
-17 18 -17 47 0 33 3 40 20 40 11 0 20 7 20 15 0 8 -9 15 -21 15 -20 0 -20 0
3 31 62 83 73 122 42 153 -24 25 -86 20 -113 -8z m89 -38 c0 -13 -33 -68 -40
-68 -6 0 -2 53 5 77 5 14 35 6 35 -9z m725 -189 c0 -8 -10 -15 -22 -17 -25 -4
-30 7 -11 26 15 15 33 10 33 -9z m-34 -108 c12 -4 18 -10 13 -13 -16 -10 -76
51 -69 70 5 14 9 10 20 -16 8 -18 24 -36 36 -41z m-583 -1 c-2 -7 -14 -2 -31
14 -16 14 -25 31 -21 37 8 14 58 -34 52 -51z m820 11 c-35 -32 -48 -38 -48
-21 0 6 6 10 13 10 8 0 24 11 37 25 13 14 25 23 28 21 2 -3 -11 -18 -30 -35z"/>
</g>
</svg>
